<svg xmlns="http://www.w3.org/2000/svg" width="1200" height="675" viewBox="0 0 1200 675" role="img" aria-labelledby="title desc">
  <title id="title">Corra visual summary</title>
  <desc id="desc">Correlation-aware column compression</desc>
  <defs>
    <marker id="arrow" markerWidth="12" markerHeight="12" refX="10" refY="6" orient="auto" markerUnits="strokeWidth">
      <path d="M2,2 L10,6 L2,10 Z" fill="#990000"/>
    </marker>
    <marker id="arrow-primary" markerWidth="12" markerHeight="12" refX="10" refY="6" orient="auto" markerUnits="strokeWidth">
      <path d="M2,2 L10,6 L2,10 Z" fill="#6b4f1d"/>
    </marker>
    <filter id="soft-shadow" x="-20%" y="-20%" width="140%" height="140%">
      <feDropShadow dx="0" dy="10" stdDeviation="14" flood-color="#1f2328" flood-opacity="0.13"/>
    </filter>
    <pattern id="grid" width="36" height="36" patternUnits="userSpaceOnUse">
      <path d="M36 0 H0 V36" fill="none" stroke="#e5ded4" stroke-width="1" opacity="0.45"/>
    </pattern>
  </defs>
  <rect width="1200" height="675" fill="#fbfaf8"/>
  <rect x="34" y="34" width="1132" height="607" rx="30" fill="#ffffff" stroke="#e5ded4" stroke-width="2"/>
  <rect x="34" y="34" width="1132" height="607" rx="30" fill="url(#grid)" opacity="0.38"/>
  <rect x="34" y="34" width="12" height="607" rx="6" fill="#6b4f1d"/>
  <path d="M34 154 H1166" stroke="#e5ded4" stroke-width="2"/>
  <circle cx="1064" cy="96" r="56" fill="#f7f4ef"/>
  <circle cx="1114" cy="108" r="28" fill="#990000" opacity="0.18"/>

  <rect x="82" y="72" width="78" height="34" rx="17" fill="#6b4f1d" stroke="none"/>
<text x="121" y="95" text-anchor="middle" font-family="Inter, Arial, sans-serif" font-size="14" font-weight="800" fill="#ffffff">VLDB</text>

  <rect x="892" y="72" width="112" height="34" rx="17" fill="#f4ebe5" stroke="#ead5c8"/>
<text x="948" y="95" text-anchor="middle" font-family="Inter, Arial, sans-serif" font-size="14" font-weight="800" fill="#6b4f1d">workshop</text>

  <rect x="1012" y="72" width="112" height="34" rx="17" fill="#2f6b3f" stroke="none"/>
<text x="1068" y="95" text-anchor="middle" font-family="Inter, Arial, sans-serif" font-size="14" font-weight="800" fill="#ffffff">accepted</text>

  <text x="600" y="76" text-anchor="middle" font-family="Inter, Arial, sans-serif" font-size="44" font-weight="880" fill="#1f2328">Corra</text>
  <text x="600" y="136" text-anchor="middle" font-family="Inter, Arial, sans-serif" font-size="20" font-weight="680" fill="#626b74">Correlation-aware column compression</text>

  <g filter="url(#soft-shadow)">
    <g>
  <rect x="95" y="210" width="300" height="230" rx="18" fill="#ffffff" stroke="#e5ded4" stroke-width="2"/>
  <rect x="95" y="210" width="300" height="38" rx="18" fill="#f7f4ef" stroke="#e5ded4" stroke-width="2"/>
  <path d="M95 234 Q95 248, 113 248 H377 Q395 248, 395 234" fill="#f7f4ef"/>
  <text x="113" y="235" text-anchor="start" font-family="Inter, Arial, sans-serif" font-size="16" font-weight="850" fill="#6b4f1d">Input columns</text>
</g>

<g>
  <rect x="450" y="190" width="300" height="270" rx="18" fill="#fffdf8" stroke="#e5ded4" stroke-width="2"/>
  <rect x="450" y="190" width="300" height="38" rx="18" fill="#f7f4ef" stroke="#e5ded4" stroke-width="2"/>
  <path d="M450 214 Q450 228, 468 228 H732 Q750 228, 750 214" fill="#f7f4ef"/>
  <text x="468" y="215" text-anchor="start" font-family="Inter, Arial, sans-serif" font-size="16" font-weight="850" fill="#6b4f1d">Correlation-aware encoding</text>
</g>

<g>
  <rect x="805" y="210" width="300" height="230" rx="18" fill="#ffffff" stroke="#e5ded4" stroke-width="2"/>
  <rect x="805" y="210" width="300" height="38" rx="18" fill="#f7f4ef" stroke="#e5ded4" stroke-width="2"/>
  <path d="M805 234 Q805 248, 823 248 H1087 Q1105 248, 1105 234" fill="#f7f4ef"/>
  <text x="823" y="235" text-anchor="start" font-family="Inter, Arial, sans-serif" font-size="16" font-weight="850" fill="#6b4f1d">Compressed blocks</text>
</g>

<g transform="translate(148 270)">
  <rect x="0" y="0" width="30" height="120" rx="8" fill="#6b4f1d" opacity="0.5"/><rect x="44" y="20" width="30" height="113" rx="8" fill="#990000" opacity="0.58"/><rect x="88" y="0" width="30" height="106" rx="8" fill="#6b4f1d" opacity="0.66"/><rect x="132" y="20" width="30" height="99" rx="8" fill="#990000" opacity="0.74"/><rect x="176" y="0" width="30" height="92" rx="8" fill="#6b4f1d" opacity="0.8200000000000001"/>
  <path d="M15 145 C75 96, 135 92, 198 44" fill="none" stroke="#990000" stroke-width="4" stroke-dasharray="8 8"/>
</g>
<g transform="translate(502 268)">
  <rect x="0" y="0" width="190" height="120" rx="18" fill="#ffffff" stroke="#6b4f1d" stroke-width="2"/>
  <path d="M35 94 V34 H83 V68 H132 V20" fill="none" stroke="#990000" stroke-width="5" stroke-linecap="round"/>
  <text x="95" y="158" text-anchor="middle" font-family="Inter, Arial, sans-serif" font-size="16" font-weight="850" fill="#6b4f1d">reference-column</text>
<text x="95" y="178" text-anchor="middle" font-family="Inter, Arial, sans-serif" font-size="16" font-weight="850" fill="#6b4f1d">relationships</text>
</g>
<g transform="translate(858 275)">
  <rect x="0" y="0" width="180" height="26" rx="9" fill="#f7f4ef" stroke="#e5ded4"/>
  <rect x="0" y="42" width="132" height="26" rx="9" fill="#fff4bf" stroke="#e5ded4"/>
  <rect x="0" y="84" width="88" height="26" rx="9" fill="#f4ebe5" stroke="#e5ded4"/>
  <text x="170" y="70" text-anchor="start" font-family="Inter, Arial, sans-serif" font-size="19" font-weight="850" fill="#6b4f1d">smaller</text>
<text x="170" y="94" text-anchor="start" font-family="Inter, Arial, sans-serif" font-size="19" font-weight="850" fill="#6b4f1d">storage</text>
</g>
<line x1="404" y1="324" x2="442" y2="324" stroke="#990000" stroke-width="4" stroke-linecap="round" marker-end="url(#arrow)"/>
<line x1="758" y1="324" x2="796" y2="324" stroke="#990000" stroke-width="4" stroke-linecap="round" marker-end="url(#arrow)"/>
<text x="600" y="520" text-anchor="middle" font-family="Inter, Arial, sans-serif" font-size="21" font-weight="850" fill="#6b4f1d">key visual: exploit cross-column correlation instead of compressing columns alone</text>

  </g>

  <rect x="112" y="545" width="976" height="58" rx="18" fill="#fffdf8" stroke="#e5ded4"/>
  <text x="600" y="579" text-anchor="middle" font-family="Inter, Arial, sans-serif" font-size="21" font-weight="820" fill="#6b4f1d">Contribution: uses cross-column correlation to improve compression.</text>
</svg>
