<svg xmlns="http://www.w3.org/2000/svg" width="1200" height="675" viewBox="0 0 1200 675" role="img" aria-labelledby="title desc">
  <title id="title">CQM Join Orders visual summary</title>
  <desc id="desc">Constrained quadratic models for join ordering</desc>
  <defs>
    <marker id="arrow" markerWidth="12" markerHeight="12" refX="10" refY="6" orient="auto" markerUnits="strokeWidth">
      <path d="M2,2 L10,6 L2,10 Z" fill="#0b7285"/>
    </marker>
    <marker id="arrow-primary" markerWidth="12" markerHeight="12" refX="10" refY="6" orient="auto" markerUnits="strokeWidth">
      <path d="M2,2 L10,6 L2,10 Z" fill="#6f1d1b"/>
    </marker>
    <filter id="soft-shadow" x="-20%" y="-20%" width="140%" height="140%">
      <feDropShadow dx="0" dy="10" stdDeviation="14" flood-color="#1f2328" flood-opacity="0.13"/>
    </filter>
    <pattern id="grid" width="36" height="36" patternUnits="userSpaceOnUse">
      <path d="M36 0 H0 V36" fill="none" stroke="#e5ded4" stroke-width="1" opacity="0.45"/>
    </pattern>
  </defs>
  <rect width="1200" height="675" fill="#fbfaf8"/>
  <rect x="34" y="34" width="1132" height="607" rx="30" fill="#ffffff" stroke="#e5ded4" stroke-width="2"/>
  <rect x="34" y="34" width="1132" height="607" rx="30" fill="url(#grid)" opacity="0.38"/>
  <rect x="34" y="34" width="12" height="607" rx="6" fill="#6f1d1b"/>
  <path d="M34 154 H1166" stroke="#e5ded4" stroke-width="2"/>
  <circle cx="1064" cy="96" r="56" fill="#eef7fa"/>
  <circle cx="1114" cy="108" r="28" fill="#0b7285" opacity="0.18"/>

  <rect x="82" y="72" width="78" height="34" rx="17" fill="#6f1d1b" stroke="none"/>
<text x="121" y="95" text-anchor="middle" font-family="Inter, Arial, sans-serif" font-size="14" font-weight="800" fill="#ffffff">ICDE</text>

  <rect x="892" y="72" width="112" height="34" rx="17" fill="#f4ebe5" stroke="#ead5c8"/>
<text x="948" y="95" text-anchor="middle" font-family="Inter, Arial, sans-serif" font-size="14" font-weight="800" fill="#6f1d1b">workshop</text>

  <rect x="1012" y="72" width="112" height="34" rx="17" fill="#2f6b3f" stroke="none"/>
<text x="1068" y="95" text-anchor="middle" font-family="Inter, Arial, sans-serif" font-size="14" font-weight="800" fill="#ffffff">accepted</text>

  <text x="600" y="76" text-anchor="middle" font-family="Inter, Arial, sans-serif" font-size="44" font-weight="880" fill="#1f2328">CQM Join Orders</text>
  <text x="600" y="136" text-anchor="middle" font-family="Inter, Arial, sans-serif" font-size="20" font-weight="680" fill="#626b74">Constrained quadratic models for join ordering</text>

  <g filter="url(#soft-shadow)">
    <g>
  <rect x="96" y="210" width="260" height="230" rx="18" fill="#ffffff" stroke="#e5ded4" stroke-width="2"/>
  <rect x="96" y="210" width="260" height="38" rx="18" fill="#eef7fa" stroke="#e5ded4" stroke-width="2"/>
  <path d="M96 234 Q96 248, 114 248 H338 Q356 248, 356 234" fill="#eef7fa"/>
  <text x="114" y="235" text-anchor="start" font-family="Inter, Arial, sans-serif" font-size="16" font-weight="850" fill="#6f1d1b">Variables</text>
</g>

<g>
  <rect x="470" y="190" width="260" height="270" rx="18" fill="#f8fbfd" stroke="#e5ded4" stroke-width="2"/>
  <rect x="470" y="190" width="260" height="38" rx="18" fill="#eef7fa" stroke="#e5ded4" stroke-width="2"/>
  <path d="M470 214 Q470 228, 488 228 H712 Q730 228, 730 214" fill="#eef7fa"/>
  <text x="488" y="215" text-anchor="start" font-family="Inter, Arial, sans-serif" font-size="16" font-weight="850" fill="#6f1d1b">CQM constraints</text>
</g>

<g>
  <rect x="844" y="210" width="260" height="230" rx="18" fill="#ffffff" stroke="#e5ded4" stroke-width="2"/>
  <rect x="844" y="210" width="260" height="38" rx="18" fill="#eef7fa" stroke="#e5ded4" stroke-width="2"/>
  <path d="M844 234 Q844 248, 862 248 H1086 Q1104 248, 1104 234" fill="#eef7fa"/>
  <text x="862" y="235" text-anchor="start" font-family="Inter, Arial, sans-serif" font-size="16" font-weight="850" fill="#6f1d1b">Valid join order</text>
</g>

<g transform="translate(140 278)">
  <rect x="0" y="0" width="28" height="28" rx="6" fill="#0b7285" stroke="#e5ded4"/><rect x="34" y="0" width="28" height="28" rx="6" fill="#ffffff" stroke="#e5ded4"/><rect x="68" y="0" width="28" height="28" rx="6" fill="#eef7fa" stroke="#e5ded4"/><rect x="102" y="0" width="28" height="28" rx="6" fill="#ffffff" stroke="#e5ded4"/><rect x="136" y="0" width="28" height="28" rx="6" fill="#eef7fa" stroke="#e5ded4"/><rect x="0" y="34" width="28" height="28" rx="6" fill="#ffffff" stroke="#e5ded4"/><rect x="34" y="34" width="28" height="28" rx="6" fill="#0b7285" stroke="#e5ded4"/><rect x="68" y="34" width="28" height="28" rx="6" fill="#ffffff" stroke="#e5ded4"/><rect x="102" y="34" width="28" height="28" rx="6" fill="#eef7fa" stroke="#e5ded4"/><rect x="136" y="34" width="28" height="28" rx="6" fill="#ffffff" stroke="#e5ded4"/><rect x="0" y="68" width="28" height="28" rx="6" fill="#eef7fa" stroke="#e5ded4"/><rect x="34" y="68" width="28" height="28" rx="6" fill="#ffffff" stroke="#e5ded4"/><rect x="68" y="68" width="28" height="28" rx="6" fill="#0b7285" stroke="#e5ded4"/><rect x="102" y="68" width="28" height="28" rx="6" fill="#ffffff" stroke="#e5ded4"/><rect x="136" y="68" width="28" height="28" rx="6" fill="#eef7fa" stroke="#e5ded4"/><rect x="0" y="102" width="28" height="28" rx="6" fill="#ffffff" stroke="#e5ded4"/><rect x="34" y="102" width="28" height="28" rx="6" fill="#eef7fa" stroke="#e5ded4"/><rect x="68" y="102" width="28" height="28" rx="6" fill="#ffffff" stroke="#e5ded4"/><rect x="102" y="102" width="28" height="28" rx="6" fill="#0b7285" stroke="#e5ded4"/><rect x="136" y="102" width="28" height="28" rx="6" fill="#ffffff" stroke="#e5ded4"/><rect x="0" y="136" width="28" height="28" rx="6" fill="#eef7fa" stroke="#e5ded4"/><rect x="34" y="136" width="28" height="28" rx="6" fill="#ffffff" stroke="#e5ded4"/><rect x="68" y="136" width="28" height="28" rx="6" fill="#eef7fa" stroke="#e5ded4"/><rect x="102" y="136" width="28" height="28" rx="6" fill="#ffffff" stroke="#e5ded4"/><rect x="136" y="136" width="28" height="28" rx="6" fill="#0b7285" stroke="#e5ded4"/>
  <text x="85" y="210" text-anchor="middle" font-family="Inter, Arial, sans-serif" font-size="17" font-weight="850" fill="#6f1d1b">join-order</text>
<text x="85" y="232" text-anchor="middle" font-family="Inter, Arial, sans-serif" font-size="17" font-weight="850" fill="#6f1d1b">assignment</text>
</g>
<g transform="translate(510 266)">
  <rect x="0" y="0" width="210" height="34" rx="17" fill="#eef7fa" stroke="#e5ded4"/>
<text x="105" y="23" text-anchor="middle" font-family="Inter, Arial, sans-serif" font-size="14" font-weight="800" fill="#6f1d1b">each relation once</text>
<rect x="0" y="58" width="162" height="34" rx="17" fill="#fff4bf" stroke="#e5ded4"/>
<text x="81" y="81" text-anchor="middle" font-family="Inter, Arial, sans-serif" font-size="14" font-weight="800" fill="#6f1d1b">tree validity</text>
<rect x="0" y="116" width="152" height="34" rx="17" fill="#eef7fa" stroke="#e5ded4"/>
<text x="76" y="139" text-anchor="middle" font-family="Inter, Arial, sans-serif" font-size="14" font-weight="800" fill="#6f1d1b">connectivity</text>

</g>
<g transform="translate(875 276) scale(0.72)">
  <circle cx="150" cy="18" r="18" fill="#6f1d1b"/>
  <circle cx="78" cy="88" r="18" fill="#0b7285"/>
  <circle cx="222" cy="88" r="18" fill="#0b7285"/>
  <rect x="20" y="146" width="42" height="34" rx="8" fill="#ffffff" stroke="#6f1d1b" stroke-width="2"/>
  <rect x="95" y="146" width="42" height="34" rx="8" fill="#ffffff" stroke="#6f1d1b" stroke-width="2"/>
  <rect x="168" y="146" width="42" height="34" rx="8" fill="#ffffff" stroke="#6f1d1b" stroke-width="2"/>
  <rect x="242" y="146" width="42" height="34" rx="8" fill="#ffffff" stroke="#6f1d1b" stroke-width="2"/>
  <path d="M139 32 L91 75 M161 32 L209 75 M72 104 L48 145 M84 104 L110 145 M216 104 L194 145 M230 104 L260 145" stroke="#6f1d1b" stroke-width="4" fill="none" stroke-linecap="round"/>
</g>

<circle cx="1044" cy="284" r="22" fill="#e8f4ec" stroke="#2f6b3f" stroke-width="2"/>
<path d="M1034 284 L1042 293 L1057 272" fill="none" stroke="#2f6b3f" stroke-width="5" stroke-linecap="round" stroke-linejoin="round"/>

<line x1="365" y1="324" x2="462" y2="324" stroke="#0b7285" stroke-width="4" stroke-linecap="round" marker-end="url(#arrow)"/>
<line x1="738" y1="324" x2="836" y2="324" stroke="#0b7285" stroke-width="4" stroke-linecap="round" marker-end="url(#arrow)"/>
<text x="600" y="520" text-anchor="middle" font-family="Inter, Arial, sans-serif" font-size="22" font-weight="850" fill="#6f1d1b">key visual: constraints remove invalid join orders before hybrid solving</text>

  </g>

  <rect x="112" y="545" width="976" height="58" rx="18" fill="#f8fbfd" stroke="#e5ded4"/>
  <text x="600" y="579" text-anchor="middle" font-family="Inter, Arial, sans-serif" font-size="21" font-weight="820" fill="#6f1d1b">Contribution: models join-order validity directly with CQM constraints.</text>
</svg>
