<svg xmlns="http://www.w3.org/2000/svg" width="1200" height="675" viewBox="0 0 1200 675" role="img" aria-labelledby="title desc">
  <title id="title">Hybrid QC-DB Optimization visual summary</title>
  <desc id="desc">Hybrid quantum-classical framework for database optimization</desc>
  <defs>
    <marker id="arrow" markerWidth="12" markerHeight="12" refX="10" refY="6" orient="auto" markerUnits="strokeWidth">
      <path d="M2,2 L10,6 L2,10 Z" fill="#0b7285"/>
    </marker>
    <marker id="arrow-primary" markerWidth="12" markerHeight="12" refX="10" refY="6" orient="auto" markerUnits="strokeWidth">
      <path d="M2,2 L10,6 L2,10 Z" fill="#6f1d1b"/>
    </marker>
    <filter id="soft-shadow" x="-20%" y="-20%" width="140%" height="140%">
      <feDropShadow dx="0" dy="10" stdDeviation="14" flood-color="#1f2328" flood-opacity="0.13"/>
    </filter>
    <pattern id="grid" width="36" height="36" patternUnits="userSpaceOnUse">
      <path d="M36 0 H0 V36" fill="none" stroke="#e5ded4" stroke-width="1" opacity="0.45"/>
    </pattern>
  </defs>
  <rect width="1200" height="675" fill="#fbfaf8"/>
  <rect x="34" y="34" width="1132" height="607" rx="30" fill="#ffffff" stroke="#e5ded4" stroke-width="2"/>
  <rect x="34" y="34" width="1132" height="607" rx="30" fill="url(#grid)" opacity="0.38"/>
  <rect x="34" y="34" width="12" height="607" rx="6" fill="#6f1d1b"/>
  <path d="M34 154 H1166" stroke="#e5ded4" stroke-width="2"/>
  <circle cx="1064" cy="96" r="56" fill="#eef7fa"/>
  <circle cx="1114" cy="108" r="28" fill="#0b7285" opacity="0.18"/>

  <rect x="82" y="72" width="78" height="34" rx="17" fill="#6f1d1b" stroke="none"/>
<text x="121" y="95" text-anchor="middle" font-family="Inter, Arial, sans-serif" font-size="14" font-weight="800" fill="#ffffff">ICDE</text>

  <rect x="892" y="72" width="78" height="34" rx="17" fill="#f4ebe5" stroke="#ead5c8"/>
<text x="931" y="95" text-anchor="middle" font-family="Inter, Arial, sans-serif" font-size="14" font-weight="800" fill="#6f1d1b">full</text>

  <rect x="1012" y="72" width="112" height="34" rx="17" fill="#2f6b3f" stroke="none"/>
<text x="1068" y="95" text-anchor="middle" font-family="Inter, Arial, sans-serif" font-size="14" font-weight="800" fill="#ffffff">accepted</text>

  <text x="600" y="76" text-anchor="middle" font-family="Inter, Arial, sans-serif" font-size="44" font-weight="880" fill="#1f2328">Hybrid QC-DB Optimization</text>
  <text x="600" y="136" text-anchor="middle" font-family="Inter, Arial, sans-serif" font-size="20" font-weight="680" fill="#626b74">Hybrid quantum-classical framework for database optimization</text>

  <g filter="url(#soft-shadow)">
    <g>
  <rect x="88" y="202" width="270" height="250" rx="18" fill="#ffffff" stroke="#e5ded4" stroke-width="2"/>
  <rect x="88" y="202" width="270" height="38" rx="18" fill="#eef7fa" stroke="#e5ded4" stroke-width="2"/>
  <path d="M88 226 Q88 240, 106 240 H340 Q358 240, 358 226" fill="#eef7fa"/>
  <text x="106" y="227" text-anchor="start" font-family="Inter, Arial, sans-serif" font-size="16" font-weight="850" fill="#6f1d1b">DBMS side</text>
</g>

<g>
  <rect x="430" y="182" width="340" height="290" rx="18" fill="#f8fbfd" stroke="#e5ded4" stroke-width="2"/>
  <rect x="430" y="182" width="340" height="38" rx="18" fill="#eef7fa" stroke="#e5ded4" stroke-width="2"/>
  <path d="M430 206 Q430 220, 448 220 H752 Q770 220, 770 206" fill="#eef7fa"/>
  <text x="448" y="207" text-anchor="start" font-family="Inter, Arial, sans-serif" font-size="16" font-weight="850" fill="#6f1d1b">Transparent control plane</text>
</g>

<g>
  <rect x="842" y="202" width="270" height="250" rx="18" fill="#ffffff" stroke="#e5ded4" stroke-width="2"/>
  <rect x="842" y="202" width="270" height="38" rx="18" fill="#eef7fa" stroke="#e5ded4" stroke-width="2"/>
  <path d="M842 226 Q842 240, 860 240 H1094 Q1112 240, 1112 226" fill="#eef7fa"/>
  <text x="860" y="227" text-anchor="start" font-family="Inter, Arial, sans-serif" font-size="16" font-weight="850" fill="#6f1d1b">Hybrid execution</text>
</g>

<g class="diagram-node">
  <rect x="130" y="258" width="190" height="82" rx="16" fill="#ffffff" stroke="#6f1d1b" stroke-width="2"/>
  <ellipse cx="169" cy="284" rx="21" ry="8" fill="#eef7fa" stroke="#6f1d1b" stroke-width="2"/>
<path d="M148 284 V314 C148 325, 190 325, 190 314 V284" fill="#eef7fa" stroke="#6f1d1b" stroke-width="2"/>
<path d="M148 314 C148 325, 190 325, 190 314" fill="none" stroke="#6f1d1b" stroke-width="2"/>

  <text x="208" y="296" text-anchor="start" font-family="Inter, Arial, sans-serif" font-size="17" font-weight="760" fill="#1f2328">optimization</text>
<text x="208" y="317" text-anchor="start" font-family="Inter, Arial, sans-serif" font-size="17" font-weight="760" fill="#1f2328">task</text>
</g>

<g transform="translate(473 248)">
  <rect x="0" y="0" width="254" height="158" rx="18" fill="#ffffff" stroke="#6f1d1b" stroke-width="2"/>
  <rect x="24" y="28" width="112" height="34" rx="17" fill="#eef7fa" stroke="#e5ded4"/>
<text x="80" y="51" text-anchor="middle" font-family="Inter, Arial, sans-serif" font-size="14" font-weight="800" fill="#6f1d1b">modeling</text>
<rect x="136" y="28" width="102" height="34" rx="17" fill="#fff4bf" stroke="#e5ded4"/>
<text x="187" y="51" text-anchor="middle" font-family="Inter, Arial, sans-serif" font-size="14" font-weight="800" fill="#6f1d1b">routing</text>
<rect x="24" y="86" width="122" height="34" rx="17" fill="#eef7fa" stroke="#e5ded4"/>
<text x="85" y="109" text-anchor="middle" font-family="Inter, Arial, sans-serif" font-size="14" font-weight="800" fill="#6f1d1b">budgeting</text>
<rect x="136" y="86" width="132" height="34" rx="17" fill="#fff4bf" stroke="#e5ded4"/>
<text x="202" y="109" text-anchor="middle" font-family="Inter, Arial, sans-serif" font-size="14" font-weight="800" fill="#6f1d1b">adaptation</text>

</g>
<g class="diagram-node">
  <rect x="878" y="250" width="194" height="74" rx="16" fill="#ffffff" stroke="#6f1d1b" stroke-width="2"/>
  <ellipse cx="917" cy="276" rx="21" ry="8" fill="#eef7fa" stroke="#6f1d1b" stroke-width="2"/>
<path d="M896 276 V306 C896 317, 938 317, 938 306 V276" fill="#eef7fa" stroke="#6f1d1b" stroke-width="2"/>
<path d="M896 306 C896 317, 938 317, 938 306" fill="none" stroke="#6f1d1b" stroke-width="2"/>

  <text x="956" y="294" text-anchor="start" font-family="Inter, Arial, sans-serif" font-size="17" font-weight="760" fill="#1f2328">classical path</text>
</g>

<g class="diagram-node">
  <rect x="878" y="348" width="194" height="74" rx="16" fill="#eef7fa" stroke="#6f1d1b" stroke-width="2"/>
  <line x1="890" y1="375" x2="895" y2="375" stroke="#6f1d1b" stroke-width="2"/><line x1="941" y1="375" x2="946" y2="375" stroke="#6f1d1b" stroke-width="2"/><line x1="890" y1="384" x2="895" y2="384" stroke="#6f1d1b" stroke-width="2"/><line x1="941" y1="384" x2="946" y2="384" stroke="#6f1d1b" stroke-width="2"/><line x1="890" y1="393" x2="895" y2="393" stroke="#6f1d1b" stroke-width="2"/><line x1="941" y1="393" x2="946" y2="393" stroke="#6f1d1b" stroke-width="2"/><line x1="890" y1="402" x2="895" y2="402" stroke="#6f1d1b" stroke-width="2"/><line x1="941" y1="402" x2="946" y2="402" stroke="#6f1d1b" stroke-width="2"/>
<rect x="895" y="365" width="46" height="46" rx="9" fill="#eef7fa" stroke="#6f1d1b" stroke-width="2"/>
<circle cx="909" cy="379" r="5" fill="#0b7285"/>
<circle cx="926" cy="385" r="5" fill="#0b7285" opacity="0.75"/>
<circle cx="915" cy="398" r="5" fill="#0b7285" opacity="0.55"/>
<path d="M909 379 L926 385 L915 398" stroke="#6f1d1b" stroke-width="2" fill="none"/>

  <text x="956" y="392" text-anchor="start" font-family="Inter, Arial, sans-serif" font-size="17" font-weight="760" fill="#1f2328">quantum path</text>
</g>

<line x1="365" y1="315" x2="422" y2="315" stroke="#0b7285" stroke-width="4" stroke-linecap="round" marker-end="url(#arrow)"/>
<line x1="778" y1="282" x2="868" y2="282" stroke="#0b7285" stroke-width="4" stroke-linecap="round" marker-end="url(#arrow)"/>
<line x1="778" y1="377" x2="868" y2="377" stroke="#0b7285" stroke-width="4" stroke-linecap="round" marker-end="url(#arrow)"/>
<path d="M980 331 C1038 332, 1038 343, 980 344" fill="none" stroke="#6f1d1b" stroke-width="4" stroke-dasharray="8 8" marker-end="url(#arrow-primary)"/>
<g transform="translate(142 390)">
  <path d="M0 40 H172" stroke="#d8d1c8" stroke-width="8" stroke-linecap="round"/>
  <path d="M0 40 H108" stroke="#0b7285" stroke-width="8" stroke-linecap="round"/>
  <text x="86" y="76" text-anchor="middle" font-family="Inter, Arial, sans-serif" font-size="16" font-weight="850" fill="#6f1d1b">latency budget</text>
</g>
<text x="600" y="520" text-anchor="middle" font-family="Inter, Arial, sans-serif" font-size="21" font-weight="850" fill="#6f1d1b">key visual: a DBMS control layer decides how quantum and classical solvers cooperate</text>

  </g>

  <rect x="112" y="545" width="976" height="58" rx="18" fill="#f8fbfd" stroke="#e5ded4"/>
  <text x="600" y="568" text-anchor="middle" font-family="Inter, Arial, sans-serif" font-size="21" font-weight="820" fill="#6f1d1b">Contribution: a practical framework for integrating quantum-classical</text>
<text x="600" y="593" text-anchor="middle" font-family="Inter, Arial, sans-serif" font-size="21" font-weight="820" fill="#6f1d1b">solving with database optimization.</text>
</svg>
