<svg xmlns="http://www.w3.org/2000/svg" width="1200" height="675" viewBox="0 0 1200 675" role="img" aria-labelledby="title desc">
  <title id="title">SEFRQO visual summary</title>
  <desc id="desc">Self-evolving fine-tuned RAG query optimizer</desc>
  <defs>
    <marker id="arrow" markerWidth="12" markerHeight="12" refX="10" refY="6" orient="auto" markerUnits="strokeWidth">
      <path d="M2,2 L10,6 L2,10 Z" fill="#d6a419"/>
    </marker>
    <marker id="arrow-primary" markerWidth="12" markerHeight="12" refX="10" refY="6" orient="auto" markerUnits="strokeWidth">
      <path d="M2,2 L10,6 L2,10 Z" fill="#8c1515"/>
    </marker>
    <filter id="soft-shadow" x="-20%" y="-20%" width="140%" height="140%">
      <feDropShadow dx="0" dy="10" stdDeviation="14" flood-color="#1f2328" flood-opacity="0.13"/>
    </filter>
    <pattern id="grid" width="36" height="36" patternUnits="userSpaceOnUse">
      <path d="M36 0 H0 V36" fill="none" stroke="#e5ded4" stroke-width="1" opacity="0.45"/>
    </pattern>
  </defs>
  <rect width="1200" height="675" fill="#fbfaf8"/>
  <rect x="34" y="34" width="1132" height="607" rx="30" fill="#ffffff" stroke="#e5ded4" stroke-width="2"/>
  <rect x="34" y="34" width="1132" height="607" rx="30" fill="url(#grid)" opacity="0.38"/>
  <rect x="34" y="34" width="12" height="607" rx="6" fill="#8c1515"/>
  <path d="M34 154 H1166" stroke="#e5ded4" stroke-width="2"/>
  <circle cx="1064" cy="96" r="56" fill="#fbf3df"/>
  <circle cx="1114" cy="108" r="28" fill="#d6a419" opacity="0.18"/>

  <rect x="82" y="72" width="92" height="34" rx="17" fill="#8c1515" stroke="none"/>
<text x="128" y="95" text-anchor="middle" font-family="Inter, Arial, sans-serif" font-size="14" font-weight="800" fill="#ffffff">SIGMOD</text>

  <rect x="892" y="72" width="78" height="34" rx="17" fill="#f4ebe5" stroke="#ead5c8"/>
<text x="931" y="95" text-anchor="middle" font-family="Inter, Arial, sans-serif" font-size="14" font-weight="800" fill="#8c1515">full</text>

  <rect x="1012" y="72" width="112" height="34" rx="17" fill="#2f6b3f" stroke="none"/>
<text x="1068" y="95" text-anchor="middle" font-family="Inter, Arial, sans-serif" font-size="14" font-weight="800" fill="#ffffff">accepted</text>

  <text x="600" y="76" text-anchor="middle" font-family="Inter, Arial, sans-serif" font-size="44" font-weight="880" fill="#1f2328">SEFRQO</text>
  <text x="600" y="136" text-anchor="middle" font-family="Inter, Arial, sans-serif" font-size="20" font-weight="680" fill="#626b74">Self-evolving fine-tuned RAG query optimizer</text>

  <g filter="url(#soft-shadow)">
    <g transform="translate(108 202)">
  <ellipse cx="46" cy="44" rx="46" ry="8" fill="#fbf3df" stroke="#8c1515" stroke-width="2"/>
<path d="M0 44 V146 C0 157, 92 157, 92 146 V44" fill="#fbf3df" stroke="#8c1515" stroke-width="2"/>
<path d="M0 146 C0 157, 92 157, 92 146" fill="none" stroke="#8c1515" stroke-width="2"/>

  <text x="46" y="190" text-anchor="middle" font-family="Inter, Arial, sans-serif" font-size="17" font-weight="850" fill="#8c1515">workload</text>
<text x="46" y="211" text-anchor="middle" font-family="Inter, Arial, sans-serif" font-size="17" font-weight="850" fill="#8c1515">history</text>
</g>
<g class="diagram-node">
  <rect x="305" y="218" width="240" height="92" rx="16" fill="#fffaf1" stroke="#8c1515" stroke-width="2"/>
  <ellipse cx="344" cy="244" rx="21" ry="8" fill="#fbf3df" stroke="#8c1515" stroke-width="2"/>
<path d="M323 244 V274 C323 285, 365 285, 365 274 V244" fill="#fbf3df" stroke="#8c1515" stroke-width="2"/>
<path d="M323 274 C323 285, 365 285, 365 274" fill="none" stroke="#8c1515" stroke-width="2"/>

  <text x="383" y="261" text-anchor="start" font-family="Inter, Arial, sans-serif" font-size="17" font-weight="760" fill="#1f2328">retrieve</text>
<text x="383" y="282" text-anchor="start" font-family="Inter, Arial, sans-serif" font-size="17" font-weight="760" fill="#1f2328">similar cases</text>
</g>

<g class="diagram-node">
  <rect x="654" y="218" width="250" height="92" rx="16" fill="#ffffff" stroke="#8c1515" stroke-width="2"/>
  <rect x="672" y="236" width="42" height="42" rx="10" fill="#fffaf1" stroke="#8c1515" stroke-width="2"/>
<path d="M681 249 H701 V261 H706" fill="none" stroke="#d6a419" stroke-width="2.4" stroke-linecap="round"/>
<path d="M681 266 H692 V269 H704" fill="none" stroke="#8c1515" stroke-width="2.4" stroke-linecap="round"/>
<circle cx="701" cy="261" r="4" fill="#d6a419"/>

  <text x="732" y="261" text-anchor="start" font-family="Inter, Arial, sans-serif" font-size="17" font-weight="760" fill="#1f2328">fine-tuned</text>
<text x="732" y="282" text-anchor="start" font-family="Inter, Arial, sans-serif" font-size="17" font-weight="760" fill="#1f2328">optimizer</text>
</g>

<g class="diagram-node">
  <rect x="970" y="218" width="160" height="92" rx="16" fill="#fbf3df" stroke="#8c1515" stroke-width="2"/>
  <path d="M1010 233 L1030 245 V257 C1030 276, 1010 281, 1010 281 C1010 281, 990 276, 990 257 V245 Z" fill="#fff4bf" stroke="#8c1515" stroke-width="2"/>
<path d="M1001 260 L1010 269 L1023 251" fill="none" stroke="#d6a419" stroke-width="4" stroke-linecap="round" stroke-linejoin="round"/>

  <text x="1048" y="271" text-anchor="start" font-family="Inter, Arial, sans-serif" font-size="17" font-weight="760" fill="#1f2328">optimizer hint</text>
</g>

<line x1="218" y1="264" x2="296" y2="264" stroke="#d6a419" stroke-width="4" stroke-linecap="round" marker-end="url(#arrow)"/>
<line x1="554" y1="264" x2="646" y2="264" stroke="#d6a419" stroke-width="4" stroke-linecap="round" marker-end="url(#arrow)"/>
<line x1="914" y1="264" x2="962" y2="264" stroke="#d6a419" stroke-width="4" stroke-linecap="round" marker-end="url(#arrow)"/>
<g transform="translate(386 398)">
  <rect x="0" y="0" width="430" height="92" rx="20" fill="#ffffff" stroke="#8c1515" stroke-width="2"/>
  <path d="M36 55 H115 V28 H188 V55 H276 V33 H365" fill="none" stroke="#d6a419" stroke-width="5" stroke-linecap="round"/>
  <text x="215" y="126" text-anchor="middle" font-family="Inter, Arial, sans-serif" font-size="19" font-weight="850" fill="#8c1515">execution feedback updates memory and optimizer behavior</text>
</g>
<path d="M1005 322 C963 470, 834 520, 610 487" fill="none" stroke="#d6a419" stroke-width="5" stroke-dasharray="10 8" marker-end="url(#arrow)"/>
<path d="M430 430 C236 430, 154 355, 156 312" fill="none" stroke="#8c1515" stroke-width="5" stroke-dasharray="10 8" marker-end="url(#arrow-primary)"/>
<text x="600" y="520" text-anchor="middle" font-family="Inter, Arial, sans-serif" font-size="22" font-weight="860" fill="#8c1515">self-evolving fine-tuned RAG loop</text>

  </g>

  <rect x="112" y="545" width="976" height="58" rx="18" fill="#fffaf1" stroke="#e5ded4"/>
  <text x="600" y="579" text-anchor="middle" font-family="Inter, Arial, sans-serif" font-size="21" font-weight="820" fill="#8c1515">Contribution: optimizer prompts evolve from real execution feedback.</text>
</svg>
