<svg xmlns="http://www.w3.org/2000/svg" viewBox="0 0 64 64" role="img" aria-labelledby="title">
  <title id="title">Red academic torch mark</title>
  <rect width="64" height="64" rx="14" fill="#fffaf1"/>
  <path d="M32 6c7.7 7.6 11.8 14 11.8 21.1 0 8.8-5.1 15.1-11.8 15.1S20.2 35.9 20.2 27.1C20.2 20 24.3 13.6 32 6z" fill="#990000"/>
  <path d="M33.2 13.3c4 5.8 6 10.1 6 14.5 0 5-2.8 8.8-6.8 8.8-4.2 0-7.2-3.7-7.2-8.8 0-4.2 2.8-9.1 8-14.5z" fill="#ffcc00"/>
  <path d="M30.5 19.2c2.8 4 4.1 6.9 4.1 9.8 0 3-1.6 5.1-3.8 5.1-2.3 0-3.9-2.1-3.9-5.1 0-2.8 1.3-5.8 3.6-9.8z" fill="#fffaf1"/>
  <path d="M23.2 39.6h17.6l-3.3 17.2h-11l-3.3-17.2z" fill="#990000"/>
  <path d="M20.8 36.2h22.4v6.4H20.8z" fill="#990000"/>
  <path d="M26.8 46.5h10.4" stroke="#ffcc00" stroke-width="2.1" stroke-linecap="round"/>
  <path d="M27.9 52h8.2" stroke="#ffcc00" stroke-width="2.1" stroke-linecap="round"/>
</svg>
